:SAMPLES-PER-SECOND 30
:FULLY-SPECIFIED
:DEGREES
125
root  -20.4675 40.5037 -27.012 3.02729 -9.06597 2.9354
RightUpLeg  5.8917 -16.4795 -20.9635
RightLeg  1.1139 -38.1285 5.41294
RightFoot  4.26997 -1.50483 11.1814
RightToes  0.00048216 0.542163 -0.142577
Spine  4.53362 3.02086 11.052
Spine1  7.74647 6.83758 -12.9862
HEad  -11.1833 42.7582 -21.8774
LeftShoulder1  9.00011 -13.1693 -47.1051
LeftArm  -23.7275 29.9285 -22.0552
LeftForeArm  107.453 -77.6885 -120.288
LeftHand  -0.25398 0.0180481 5.50724
RightShoulder  4.9366 8.8684 33.9536
RightArm  -8.11358 -21.5813 26.9895
RightForeArm  60.7379 76.1326 118.344
RightHand  1.25114 -16.4206 -13.8299
LeftUpLeg  -13.6141 26.429 2.60479
LeftLeg  14.336 27.3185 3.80864
LeftFoot  -3.71797 0.0239353 0.0120495
LeftToes  1.06248e-005 4.65855e-005 -8.185e-006
126
root  -19.2095 40.2396 -26.2151 2.9498 -3.04593 4.5774
RightUpLeg  9.80589 -17.6931 -25.3201
RightLeg  0.581346 -41.3897 5.60568
RightFoot  3.78229 -1.68359 12.8616
RightToes  0.00048216 0.542163 -0.142577
Spine  2.25917 3.02949 8.65992
Spine1  9.19162 6.6462 -12.2955
HEad  -9.02424 38.774 -19.086
LeftShoulder1  9.02415 -13.2872 -46.8951
LeftArm  -21.4563 29.0088 -21.8401
LeftForeArm  107.869 -77.6529 -120.618
LeftHand  -0.25398 0.0180481 5.50724
RightShoulder  4.89751 8.90251 33.532
RightArm  -9.52924 -24.3296 26.4156
RightForeArm  65.9409 75.3302 123.795
RightHand  1.35143 -18.754 -12.3707
LeftUpLeg  -12.9949 30.4451 -0.724378
LeftLeg  14.959 23.5028 2.7339
LeftFoot  -3.49294 0.188421 -2.47648
LeftToes  1.06248e-005 4.65855e-005 -8.185e-006
127
root  -17.869 39.9784 -25.4067 2.73878 3.25613 6.24712
RightUpLeg  12.4757 -18.4697 -29.0599
RightLeg  4.24147 -41.4338 2.46998
RightFoot  -0.365506 -1.04869 10.6244
RightToes  0.00048216 0.542163 -0.142577
Spine  0.962652 2.84444 6.56819
Spine1  9.98065 6.34138 -11.5921
HEad  -6.94957 34.1306 -16.5469
LeftShoulder1  8.99937 -13.3194 -46.6714
LeftArm  -18.2967 27.2957 -21.0129
LeftForeArm  107.043 -77.7928 -119.552
LeftHand  -0.25398 0.0180481 5.50724
RightShoulder  4.89253 8.91219 33.4616
RightArm  -10.8021 -27.5383 25.5515
RightForeArm  70.2462 74.4238 128.593
RightHand  1.37431 -20.178 -11.4056
LeftUpLeg  -12.9461 36.2084 -5.40225
LeftLeg  16.0913 12.2377 1.72761
LeftFoot  -5.08288 0.173275 -2.53256
LeftToes  1.06248e-005 4.65855e-005 -8.185e-006
128
root  -16.5561 39.8113 -24.6753 2.05105 9.41614 7.23647
RightUpLeg  13.7781 -18.6309 -30.5142
RightLeg  9.98166 -35.1008 -2.35947
RightFoot  -6.10543 -0.279316 5.05669
RightToes  0.00048216 0.542163 -0.142577
Spine  1.03023 2.35454 5.62664
Spine1  10.4187 5.90071 -11.3851
HEad  -5.29666 29.9242 -15.0959
LeftShoulder1  8.97487 -13.2746 -46.6686
LeftArm  -15.7512 24.8886 -20.3005
LeftForeArm  102.909 -78.2768 -115.066
LeftHand  -0.25398 0.0180481 5.50724
RightShoulder  4.88965 8.83084 33.6967
RightArm  -11.7043 -29.9235 24.9928
RightForeArm  71.6615 73.9817 130.536
RightHand  1.34299 -19.3251 -11.831
LeftUpLeg  -11.5045 37.0732 -8.19373
LeftLeg  17.3641 4.66249 1.38323
LeftFoot  -7.9091 0.0816051 -1.1389
LeftToes  1.06248e-005 4.65855e-005 -8.185e-006
129
root  -15.3845 39.7349 -24.0244 1.16663 14.6828 7.62259
RightUpLeg  13.2494 -19.3849 -29.7171
RightLeg  15.6029 -21.3037 -5.07529
RightFoot  -10.7535 -0.0624065 0.794291
RightToes  0.00048216 0.542163 -0.142577
Spine  1.46098 1.95014 4.96468
Spine1  11.2989 5.48481 -11.0865
HEad  -4.04499 26.8072 -14.8377
LeftShoulder1  9.01839 -13.2397 -47.0002
LeftArm  -14.482 22.4211 -20.0425
LeftForeArm  95.9868 -78.85 -107.805
LeftHand  -0.25398 0.0180481 5.50724
RightShoulder  4.90625 8.79151 33.956
RightArm  -12.4057 -30.8899 24.9371
RightForeArm  69.874 74.2805 129.13
RightHand  1.27125 -17.7172 -12.6188
LeftUpLeg  -8.33557 33.0632 -8.51057
LeftLeg  17.8659 3.88931 1.23717
LeftFoot  -10.3342 0.0658379 -0.65409
LeftToes  1.06248e-005 4.65855e-005 -8.185e-006
130
root  -14.3699 39.7304 -23.3796 0.605468 18.4403 7.70912
RightUpLeg  9.79648 -16.4825 -26.3355
RightLeg  22.0669 -8.83325 -4.31794
RightFoot  -12.6657 -0.0788672 0.433213
RightToes  0.00048216 0.542163 -0.142577
Spine  1.63934 1.99926 3.74533
Spine1  12.2996 5.24676 -10.1561
HEad  -2.74037 24.6975 -14.9171
LeftShoulder1  9.03903 -13.2037 -47.2137
LeftArm  -14.0673 20.8714 -20.2321
LeftForeArm  90.4475 -79.1657 -101.858
LeftHand  -0.25398 0.0180481 5.50724
RightShoulder  4.98755 8.90962 34.2282
RightArm  -12.8896 -30.7881 24.9483
RightForeArm  65.8174 74.9896 125.497
RightHand  1.2356 -17.2476 -12.7601
LeftUpLeg  -4.79421 27.9866 -7.91978
LeftLeg  17.1632 5.89838 0.308493
LeftFoot  -11.6954 0.0661088 -1.31035
LeftToes  1.06248e-005 4.65855e-005 -8.185e-006
131
root  -13.4452 39.7929 -22.6913 0.371441 21.2002 7.39398
RightUpLeg  4.51149 -11.0325 -21.4792
RightLeg  28.9745 -3.63422 -2.47354
RightFoot  -12.6595 -0.0632868 1.96006
RightToes  0.00048216 0.542163 -0.142577
Spine  1.81455 2.21008 2.33921
Spine1  12.7193 4.95735 -8.87725
HEad  -1.24164 23.2809 -14.5581
LeftShoulder1  8.9391 -13.1473 -46.8412
LeftArm  -13.9799 20.6609 -20.7517
LeftForeArm  89.1506 -79.2501 -100.065
LeftHand  -0.25398 0.0180481 5.50724
RightShoulder  5.08936 9.07889 34.4943
RightArm  -12.9503 -30.2695 24.8102
RightForeArm  61.4898 75.5721 121.908
RightHand  1.27692 -17.5867 -12.8002
LeftUpLeg  -1.48337 21.001 -6.86654
LeftLeg  15.4878 10.0415 -1.72636
LeftFoot  -12.6163 0.0503944 -2.24785
LeftToes  1.06248e-005 4.65855e-005 -8.185e-006
132
root  -12.536 39.9071 -21.9625 0.188317 24.1106 6.38984
RightUpLeg  -0.950424 -7.4929 -16.3185
RightLeg  34.4387 -3.98359 -3.22124
RightFoot  -12.7795 -0.0576195 2.37539
RightToes  0.00048216 0.542163 -0.142577
Spine  2.07934 2.03986 1.48845
Spine1  12.6981 4.23737 -7.55657
HEad  -0.119827 22.3512 -13.8562
LeftShoulder1  8.7757 -13.1149 -46.0542
LeftArm  -14.1492 21.2887 -21.3622
LeftForeArm  90.6398 -79.225 -101.222
LeftHand  -0.25398 0.0180481 5.50724
RightShoulder  5.11112 9.14865 34.4436
RightArm  -12.6395 -29.7931 24.8945
RightForeArm  59.0991 75.7746 120.391
RightHand  1.3369 -17.4176 -13.5275
LeftUpLeg  1.22944 13.7898 -5.87453
LeftLeg  13.3801 13.9384 -3.5638
LeftFoot  -13.432 0.0207569 -3.28302
LeftToes  1.06248e-005 4.65855e-005 -8.185e-006
133
root  -11.6062 40.0349 -21.2177 -0.118548 27.6726 4.86272
RightUpLeg  -6.14519 -6.23319 -11.4865
RightLeg  37.4105 -6.78098 -5.78021
RightFoot  -12.5894 -0.0721934 0.988286
RightToes  0.00048216 0.542163 -0.142577
Spine  2.42586 1.37304 1.36288
Spine1  12.6533 3.08889 -6.2141
HEad  -0.0032301 21.6365 -13.2914
LeftShoulder1  8.64571 -13.1197 -45.3349
LeftArm  -14.6057 21.9258 -21.8293
LeftForeArm  92.6779 -79.1407 -103.296
LeftHand  -0.25398 0.0180481 5.50724
RightShoulder  5.04452 9.1324 33.9736
RightArm  -12.3414 -29.6105 25.4401
RightForeArm  59.3592 75.6454 121.194
RightHand  1.35474 -16.6977 -14.4999
LeftUpLeg  3.70601 8.83965 -5.04516
LeftLeg  11.1726 15.34 -4.47855
LeftFoot  -13.7696 -0.00132622 -3.96002
LeftToes  1.06248e-005 4.65855e-005 -8.185e-006
134
root  -10.6734 40.1004 -20.4852 -0.730135 31.353 3.41203
RightUpLeg  -10.9975 -6.87678 -7.71958
RightLeg  37.5887 -8.45872 -7.18034
RightFoot  -10.7915 -0.0750748 -0.0211391
RightToes  0.00048216 0.542163 -0.142577
Spine  3.42765 0.621151 1.54242
Spine1  12.4979 1.98517 -5.10329
HEad  -0.80241 20.7345 -12.9816
LeftShoulder1  8.57511 -13.1308 -44.9185
LeftArm  -15.1966 22.0583 -22.1216
LeftForeArm  94.8038 -79.0191 -105.634
LeftHand  -0.25398 0.0180481 5.50724
RightShoulder  4.98329 9.12175 33.526
RightArm  -12.4422 -29.7306 26.1256
RightForeArm  61.1543 75.3595 123.04
RightHand  1.33778 -16.2914 -14.8381
LeftUpLeg  6.35252 5.88699 -4.60809
LeftLeg  9.10228 15.1492 -4.6739
LeftFoot  -13.8124 0.0128938 -3.23295
LeftToes  1.06248e-005 4.65855e-005 -8.185e-006
135
root  -9.7461 40.0466 -19.7532 -1.74998 34.5025 2.36663
RightUpLeg  -14.975 -8.0463 -5.00634
RightLeg  34.9731 -8.66259 -6.7107
RightFoot  -7.73661 -0.0758781 0.659829
RightToes  0.00048216 0.542163 -0.142577
Spine  5.32055 0.148925 1.81886
Spine1  12.181 1.33256 -4.51466
HEad  -1.87615 19.4536 -12.7552
LeftShoulder1  8.5674 -13.1528 -44.8146
LeftArm  -15.77 21.5799 -22.367
LeftForeArm  97.2434 -78.8779 -108.098
LeftHand  -0.25398 0.0180481 5.50724
RightShoulder  4.9859 9.13928 33.492
RightArm  -13.0637 -29.8376 26.5749
RightForeArm  62.8882 75.1029 124.597
RightHand  1.30585 -16.2817 -14.5292
LeftUpLeg  9.16897 4.36572 -4.70213
LeftLeg  7.83123 14.646 -4.20017
LeftFoot  -14.2999 0.0622285 -0.980367
LeftToes  1.06248e-005 4.65855e-005 -8.185e-006
136
root  -8.79004 39.8488 -18.9598 -2.85177 37.0321 1.79553
RightUpLeg  -17.7698 -9.01315 -3.0266
RightLeg  29.8528 -8.33893 -5.37685
RightFoot  -4.67233 -0.10884 1.37324
RightToes  0.00048216 0.542163 -0.142577
Spine  7.24041 -0.012816 1.94183
Spine1  12.1438 1.07605 -4.21702
HEad  -2.73263 17.9557 -12.5111
LeftShoulder1  8.60832 -13.1854 -44.9461
LeftArm  -16.22 20.6525 -22.6549
LeftForeArm  99.8729 -78.7291 -110.497
LeftHand  -0.25398 0.0180481 5.50724
RightShoulder  5.01565 9.15633 33.6727
RightArm  -14.0575 -29.5922 26.8047
RightForeArm  63.8911 74.9448 125.498
RightHand  1.25023 -16.1011 -14.1871
LeftUpLeg  11.9105 3.98599 -5.05815
LeftLeg  7.84742 14.2077 -3.28299
LeftFoot  -15.4868 0.145239 1.43611
LeftToes  1.06248e-005 4.65855e-005 -8.185e-006
